<!-- icon666.com - MILLIONS vector ICONS FREE --><svg id="Layer_1" enable-background="new 0 0 512.027 512.027" viewBox="0 0 512.027 512.027" xmlns="http://www.w3.org/2000/svg"><path d="m512.014 352.027c0 34.64-5.42 78.47-30.84 93.23-3.952 10.691-1.874 38.656-21.52 49.78-19.983 11.306-39.393-5.917-48.18-3.31-4.449 1.354-12.104 20.3-35.46 20.3-32.614 0-89.391-47.107-87.95-90.79.52-14.56 5-25.49 9.26-34.47-27.849 6.893-54.761 6.896-82.62 0 4.26 8.98 8.74 19.91 9.26 34.47 1.44 43.638-55.342 90.79-87.95 90.79-23.435 0-30.99-18.939-35.46-20.3-8.776-2.604-28.219 14.604-48.18 3.31-19.635-11.118-17.573-39.102-21.52-49.78-25.42-14.76-30.84-58.59-30.84-93.23 0-46.63 20.34-66.97 36.69-83.32 18.3-18.3 24.77-36.88 19.79-56.8-8.9-35.59 5.84-71.11 23.02-97.94 16.37-25.54 34.95-43.19 37.47-45.54 17.971-58.969 85.928-80.713 139.03-61.63 53.292-19.129 121.099 2.791 139.03 61.63 2.52 2.35 21.1 20 37.47 45.54 17.18 26.83 31.92 62.35 23.02 97.94-4.98 19.92 1.49 38.5 19.79 56.8 16.35 16.35 36.69 36.691 36.69 83.32z" fill="#ffaa64" style="fill: rgb(33, 26, 32);"></path><path d="m440.004 177.217c-1.846 74.262-28.651 106.199-36.69 121.41-26.436 51.279-25.037 77.794-52.71 98.96-17.21 13.14-41.42 20.21-62.54 23.65.52-14.56 5-25.49 9.26-34.47-27.849 6.893-54.761 6.896-82.62 0 4.26 8.98 8.74 19.91 9.26 34.47-21.13-3.44-45.34-10.52-62.55-23.68-27.57-20.972-26.334-47.787-52.7-98.93-7.432-14.064-34.824-46.389-36.69-121.4-.574-22.964 5.67-43.565 7.49-63.26 16.37-25.54 34.95-43.19 37.47-45.54 17.971-58.969 85.928-80.713 139.03-61.63 53.292-19.129 121.099 2.791 139.03 61.63 2.52 2.35 21.1 20 37.47 45.54 1.835 19.832 8.063 40.314 7.49 63.25z" fill="#f2a661" style="fill: rgb(253, 220, 196);"></path><path d="m408.014 176.427c-1.632 65.464-23.96 90.111-33.1 107.45-27.104 54.207-26.511 75.117-43.74 88.28-19.08 14.57-55.41 19.87-75.16 19.87s-56.08-5.3-75.17-19.89c-16.997-12.943-17.008-34.816-43.73-88.26-9.262-17.57-31.47-42.059-33.1-107.45-.562-22.654 8-46.109 8-72.4 0-65.832 45.483-102.382 103.55-103.99 17.15-.48 32.12 3.76 40.45 6.76 8.33-3 23.35-7.22 40.45-6.76 47.77 1.32 103.55 29.36 103.55 103.99 0 26.257 8.561 49.782 8 72.4z" fill="#ffaa64" style="fill: rgb(33, 26, 32);"></path><path d="m181.976 301.71-20.739-28.508c36.365 3.273 41.285 4.587 45.906 1.51 21.811-14.54 32.871-34.285 32.871-58.685h32c0 24.399 11.061 44.145 32.875 58.688 4.632 3.083 9.6 1.755 45.902-1.513l-20.739 28.508c-40.895 56.215-106.897 56.608-148.076 0z" fill="#ea8692"></path><path d="m317.114 292.297c-34.605 47.571-87.58 47.592-122.2 0 7.78.7 15.17-.32 21.1-4.27 24-16 40-40 40-72 0 32 16 56 40 72 5.93 3.95 13.32 4.971 21.1 4.27z" fill="#ea8692"></path><path d="m296.014 112.007c0 16 8 16 16 8 3.808-3.808 8-8 16-8 16 0 20.251 15.499 24 8 12.804-25.607-56-53.061-56-8z" fill="#f2a661" style="fill: rgb(253, 220, 196);"></path><path d="m288.014 152.007c-16-16-32-40 0-64s-16-32-16-56c0-13.18 30.77-21.54 58.51-26.39-26.052-8.105-51.412-7.138-74.51 1.18-23.098-8.318-48.458-9.285-74.51-1.18 27.74 4.85 58.51 13.21 58.51 26.39 0 24-48 32-16 56s16 48 0 64-88 56-88 128c0 24 56 40 88 16s32-25 32-25 0 1 32 25 88 8 88-16c0-72-72-112-88-128z" fill="#ffdfba"></path><g fill="#999"><path d="m304.014 180.027c0 19.93-21.41 44-48 44s-48-24.07-48-44c0-20.19 21.08-36 48-36s48 15.81 48 36z" fill="#999"></path><circle cx="180.014" cy="148.023" r="20" fill="#999"></circle><circle cx="332.014" cy="148.023" r="20" fill="#999"></circle></g><path d="m216.014 112.007c0 16-8 16-16 8-3.808-3.808-8-8-16-8-16 0-20.251 15.499-24 8-12.804-25.607 56-53.061 56-8z" fill="#f2a661" style="fill: rgb(253, 220, 196);"></path></svg>